<svg width="14" height="18" viewBox="0 0 14 18" fill="none" xmlns="http://www.w3.org/2000/svg">
<path d="M2.89771 5.17965V3.47964C2.89772 2.98738 3.03563 2.50565 3.29479 2.0926C3.55394 1.67954 3.92327 1.35281 4.35819 1.15186C4.79311 0.9509 5.27503 0.884302 5.74578 0.960103C6.21652 1.0359 6.65597 1.25086 7.01108 1.57903C7.36619 1.25086 7.80564 1.0359 8.27639 0.960103C8.74713 0.884302 9.22905 0.9509 9.66397 1.15186C10.0989 1.35281 10.4682 1.67954 10.7274 2.0926C10.9865 2.50565 11.1244 2.98738 11.1245 3.47964V5.17965H12.3585C12.6857 5.17965 12.9996 5.31398 13.231 5.55309C13.4625 5.79219 13.5925 6.1165 13.5925 6.45465V14.9589C13.5925 15.7468 13.2895 16.5024 12.7503 17.0596C12.2111 17.6167 11.4798 17.9297 10.7172 17.9297H3.72039C2.84764 17.9297 2.01064 17.5715 1.39351 16.9338C0.776385 16.2962 0.429688 15.4314 0.429688 14.5297V6.45465C0.429688 6.1165 0.559699 5.79219 0.791121 5.55309C1.02254 5.31398 1.33642 5.17965 1.6637 5.17965H2.89771ZM8.35616 16.6547C8.02056 16.1573 7.84106 15.5653 7.84198 14.9589V6.45465H1.6637V14.5297C1.6637 14.8087 1.7169 15.0851 1.82025 15.3429C1.92361 15.6007 2.07511 15.835 2.26609 16.0323C2.45707 16.2296 2.6838 16.3861 2.93333 16.4929C3.18285 16.5997 3.4503 16.6547 3.72039 16.6547H8.35616ZM6.59975 5.17965V3.47964C6.59975 3.14149 6.46973 2.81719 6.23831 2.57808C6.00689 2.33897 5.69301 2.20464 5.36573 2.20464C5.03845 2.20464 4.72458 2.33897 4.49316 2.57808C4.26173 2.81719 4.13172 3.14149 4.13172 3.47964V5.17965H6.59975ZM7.83376 5.17965H9.89044V3.47964C9.89047 3.21719 9.8121 2.96112 9.66605 2.7464C9.51999 2.53167 9.31336 2.36874 9.07435 2.27986C8.83535 2.19098 8.57562 2.18046 8.33062 2.24976C8.08562 2.31905 7.86729 2.46477 7.70542 2.66704C7.78851 2.92204 7.83376 3.19574 7.83376 3.47964V5.17965ZM9.076 14.9589C9.076 15.4087 9.24891 15.84 9.5567 16.158C9.86449 16.476 10.2819 16.6547 10.7172 16.6547C11.1525 16.6547 11.57 16.476 11.8778 16.158C12.1856 15.84 12.3585 15.4087 12.3585 14.9589V6.45465H9.076V14.9589Z" fill="black" fill-opacity="0.35"/>
</svg>
