<svg width="15" height="18" viewBox="0 0 15 18" fill="none" xmlns="http://www.w3.org/2000/svg">
<path d="M13.9794 14.8031C13.6256 13.8488 13.1122 12.982 12.4678 12.2509C11.8254 11.5178 11.0643 10.9332 10.2267 10.5296C10.2192 10.5253 10.2117 10.5232 10.2042 10.5189C11.3726 9.55783 12.1321 7.99238 12.1321 6.22617C12.1321 3.30029 10.0505 0.929688 7.48118 0.929688C4.9119 0.929688 2.83023 3.30029 2.83023 6.22617C2.83023 7.99238 3.58976 9.55783 4.75812 10.521C4.75062 10.5253 4.74312 10.5274 4.73562 10.5317C3.89545 10.9353 3.14154 11.5141 2.49453 12.2531C1.85073 12.9847 1.33743 13.8513 0.982973 14.8052C0.634756 15.739 0.446954 16.7402 0.429734 17.7546C0.429234 17.7774 0.432745 17.8 0.44006 17.8213C0.447375 17.8425 0.458347 17.8618 0.472329 17.8781C0.486311 17.8945 0.50302 17.9074 0.521471 17.9163C0.539922 17.9251 0.559743 17.9297 0.579765 17.9297H1.705C1.78751 17.9297 1.85315 17.8549 1.85503 17.7631C1.89253 16.1144 2.4739 14.5703 3.50162 13.3999C4.56496 12.189 5.97712 11.5227 7.48118 11.5227C8.98524 11.5227 10.3974 12.189 11.4607 13.3999C12.4885 14.5703 13.0698 16.1144 13.1073 17.7631C13.1092 17.8571 13.1749 17.9297 13.2574 17.9297H14.3826C14.4026 17.9297 14.4224 17.9251 14.4409 17.9163C14.4593 17.9074 14.4761 17.8945 14.49 17.8781C14.504 17.8618 14.515 17.8425 14.5223 17.8213C14.5296 17.8 14.5331 17.7774 14.5326 17.7546C14.5139 16.7337 14.3282 15.7406 13.9794 14.8031ZM7.48118 9.89954C6.62038 9.89954 5.81021 9.51725 5.20071 8.82315C4.59121 8.12906 4.25552 7.20645 4.25552 6.22617C4.25552 5.24589 4.59121 4.32328 5.20071 3.62918C5.81021 2.93509 6.62038 2.5528 7.48118 2.5528C8.34198 2.5528 9.15215 2.93509 9.76165 3.62918C10.3712 4.32328 10.7068 5.24589 10.7068 6.22617C10.7068 7.20645 10.3712 8.12906 9.76165 8.82315C9.15215 9.51725 8.34198 9.89954 7.48118 9.89954Z" fill="black" fill-opacity="0.35"/>
</svg>
