<svg width="14" height="15" viewBox="0 0 14 15" fill="none" xmlns="http://www.w3.org/2000/svg">
<path d="M12.5395 7.67031H10.4334C10.1542 7.67058 9.88654 7.77993 9.68912 7.97435C9.4917 8.16878 9.38066 8.4324 9.38038 8.70736V14.9297H10.4334V12.3371H12.5395V14.9297H13.5925V8.70736C13.5922 8.4324 13.4812 8.16878 13.2837 7.97435C13.0863 7.77993 12.8186 7.67058 12.5395 7.67031ZM10.4334 11.3V8.70736H12.5395V11.3H10.4334ZM7.27434 13.3741C6.31021 13.3745 5.36129 13.1375 4.51385 12.6847C3.66641 12.2319 2.94734 11.5776 2.42201 10.7815H5.16829V9.74441H0.956199V13.8926H2.00922V11.9819C2.65253 12.7419 3.45757 13.3535 4.3674 13.7733C5.27723 14.1931 6.26961 14.4108 7.27434 14.4112V13.3741ZM9.38038 4.55914H12.1261C11.4454 3.52858 10.4446 2.7423 9.2731 2.31755C8.10158 1.8928 6.82204 1.85232 5.62526 2.20215C4.42847 2.55198 3.37855 3.27338 2.63202 4.25879C1.88549 5.24421 1.48236 6.44085 1.48271 7.67031H0.429688C0.430278 6.28441 0.864437 4.93235 1.67308 3.79812C2.48173 2.66389 3.62558 1.80258 4.94899 1.33139C6.2724 0.860207 7.71108 0.802036 9.06925 1.16479C10.4274 1.52755 11.6391 2.29362 12.5395 3.35875V1.44798H13.5925V5.5962H9.38038V4.55914Z" fill="black" fill-opacity="0.35"/>
</svg>
